<svg width="32" height="33" viewBox="0 0 32 33" fill="none" xmlns="http://www.w3.org/2000/svg">
<circle cx="15.9993" cy="16.5003" r="13.3333" fill="black"/>
<path d="M16 9.94143C18.1361 9.94143 18.3891 9.94959 19.2327 9.98808C20.0127 10.0236 20.4363 10.154 20.7182 10.2635C21.0916 10.4087 21.3581 10.582 21.638 10.8619C21.918 11.1419 22.0913 11.4084 22.2365 11.7818C22.346 12.0637 22.4763 12.4873 22.5119 13.2673C22.5504 14.1109 22.5586 14.3639 22.5586 16.5C22.5586 18.6361 22.5504 18.8891 22.5119 19.7326C22.4763 20.5126 22.346 20.9362 22.2365 21.2181C22.0913 21.5915 21.918 21.858 21.638 22.138C21.3581 22.4179 21.0916 22.5913 20.7182 22.7364C20.4363 22.846 20.0127 22.9763 19.2327 23.0119C18.3892 23.0503 18.1362 23.0585 16 23.0585C13.8638 23.0585 13.6108 23.0503 12.7673 23.0119C11.9873 22.9763 11.5637 22.846 11.2818 22.7364C10.9084 22.5913 10.6419 22.4179 10.362 22.138C10.0821 21.858 9.90867 21.5915 9.76354 21.2181C9.65398 20.9362 9.52366 20.5126 9.48809 19.7326C9.4496 18.8891 9.44144 18.6361 9.44144 16.5C9.44144 14.3639 9.4496 14.1109 9.48809 13.2673C9.52366 12.4873 9.65398 12.0637 9.76354 11.7818C9.90867 11.4084 10.082 11.1419 10.362 10.862C10.6419 10.582 10.9084 10.4087 11.2818 10.2635C11.5637 10.154 11.9873 10.0236 12.7673 9.98808C13.6109 9.94959 13.8639 9.94143 16 9.94143ZM16 8.5C13.8273 8.5 13.5549 8.50921 12.7016 8.54814C11.8501 8.58698 11.2686 8.72223 10.7597 8.91997C10.2336 9.12442 9.78748 9.39796 9.34271 9.8427C8.89797 10.2875 8.62442 10.7336 8.42001 11.2597C8.22223 11.7685 8.08698 12.3501 8.04814 13.2016C8.00921 14.0549 8 14.3273 8 16.5C8 18.6726 8.00921 18.9451 8.04814 19.7984C8.08698 20.6499 8.22223 21.2314 8.42001 21.7403C8.62442 22.2663 8.89797 22.7125 9.34271 23.1572C9.78748 23.602 10.2336 23.8755 10.7597 24.0799C11.2686 24.2777 11.8501 24.413 12.7016 24.4518C13.5549 24.4907 13.8273 24.4999 16 24.4999C18.1727 24.4999 18.4451 24.4907 19.2984 24.4518C20.1499 24.413 20.7314 24.2777 21.2403 24.0799C21.7664 23.8755 22.2125 23.602 22.6573 23.1572C23.102 22.7125 23.3756 22.2663 23.58 21.7403C23.7778 21.2314 23.913 20.6499 23.9519 19.7984C23.9908 18.9451 24 18.6726 24 16.5C24 14.3273 23.9908 14.0549 23.9519 13.2016C23.913 12.3501 23.7778 11.7685 23.58 11.2597C23.3756 10.7336 23.102 10.2875 22.6573 9.8427C22.2125 9.39796 21.7664 9.12442 21.2403 8.91997C20.7314 8.72223 20.1499 8.58698 19.2984 8.54814C18.4451 8.50921 18.1727 8.5 16 8.5Z" fill="white"/>
<path d="M16.0046 12.3955C13.7357 12.3955 11.8965 14.2347 11.8965 16.5036C11.8965 18.7725 13.7357 20.6117 16.0046 20.6117C18.2734 20.6117 20.1127 18.7725 20.1127 16.5036C20.1127 14.2347 18.2734 12.3955 16.0046 12.3955ZM16.0046 19.1703C14.5318 19.1703 13.3379 17.9764 13.3379 16.5036C13.3379 15.0308 14.5318 13.8369 16.0046 13.8369C17.4774 13.8369 18.6713 15.0308 18.6713 16.5036C18.6713 17.9764 17.4774 19.1703 16.0046 19.1703Z" fill="white"/>
<path d="M21.2345 12.2305C21.2345 12.7607 20.8046 13.1905 20.2744 13.1905C19.7443 13.1905 19.3145 12.7607 19.3145 12.2305C19.3145 11.7003 19.7443 11.2705 20.2744 11.2705C20.8046 11.2705 21.2345 11.7003 21.2345 12.2305Z" fill="white"/>
</svg>
