<svg width="32" height="33" viewBox="0 0 32 33" fill="none" xmlns="http://www.w3.org/2000/svg">
<circle cx="15.9993" cy="16.5003" r="13.3333" fill="black"/>
<path fill-rule="evenodd" clip-rule="evenodd" d="M12.5171 10.0226C12.5171 10.8527 11.8851 11.5244 10.8968 11.5244C9.94689 11.5244 9.31487 10.8527 9.33443 10.0226C9.31487 9.15219 9.94687 8.5 10.9157 8.5C11.8851 8.5 12.4982 9.15219 12.5171 10.0226ZM9.41389 22.3794V12.7108H12.4187V22.3788H9.41389V22.3794Z" fill="white"/>
<path fill-rule="evenodd" clip-rule="evenodd" d="M14.8275 15.7964C14.8275 14.5904 14.7878 13.5623 14.748 12.7121H17.358L17.4968 14.0367H17.5561C17.9515 13.4236 18.9399 12.4951 20.5414 12.4951C22.5181 12.4951 24.001 13.8001 24.001 16.646V22.3807H20.9961V17.0226C20.9961 15.7762 20.5615 14.9266 19.4741 14.9266C18.6435 14.9266 18.1496 15.5 17.9522 16.0531C17.8727 16.2512 17.8336 16.5274 17.8336 16.8049V22.3807H14.8287V15.7964H14.8275Z" fill="white"/>
</svg>
